<?xml version="1.0" encoding="UTF-8"?>
<!DOCTYPE svg PUBLIC "-//W3C//DTD SVG 1.1//EN" "http://www.w3.org/Graphics/SVG/1.1/DTD/svg11.dtd">
<!-- Creator: CorelDRAW 2020 (64 Bit) -->
<svg xmlns="http://www.w3.org/2000/svg" xml:space="preserve" width="32.1768mm" height="16.1041mm" version="1.1" style="shape-rendering:geometricPrecision; text-rendering:geometricPrecision; image-rendering:optimizeQuality; fill-rule:evenodd; clip-rule:evenodd"
viewBox="0 0 17217.89 8617.35"
 xmlns:xlink="http://www.w3.org/1999/xlink"
 xmlns:xodm="http://www.corel.com/coreldraw/odm/2003">
 <defs>
  <style type="text/css">
   <![CDATA[
    .fil0 {fill:#FEFEFE;fill-rule:nonzero}
   ]]>
  </style>
 </defs>
 <g id="Camada_x0020_1">
  <metadata id="CorelCorpID_0Corel-Layer"/>
  <path class="fil0" d="M9944.4 3168.08l-749.04 0 0 -1888.48c828.5,91.18 1445.26,386.08 1641.96,490.26 327.32,171.77 761.13,795.11 1093.16,1398.22l-1986.09 0zm-2001.93 0l-2692.05 0c243.1,-473.62 628.42,-1106.59 859.48,-1303.67 252.35,-215.16 999.89,-459.65 1832.57,-562.34l0 1866.01zm5699.22 0l-307.47 0c-249.41,-541.42 -998.82,-2026.65 -1913.58,-2507.44 -309.4,-162.72 -1429.58,-691.67 -2858.25,-659.19 -1121.47,24.35 -2603.17,344.29 -3265.95,909.67 -521.19,444.94 -1196.97,1663.26 -1417.11,2256.96l-302.98 0c-25.1,40.61 -2312.66,474.58 -2984.86,1159.09 -713.56,725.44 -810.57,2669.79 -131.37,2669.79 189.32,0 942.53,0 2153.9,0 -3.8,43.61 -6.42,87.97 -6.42,132.71 0,821.92 665.99,1487.69 1487.53,1487.69 821.92,0 1487.69,-665.77 1487.69,-1487.69 0,-44.73 -2.46,-89.09 -6.21,-132.71 1095.03,0 2339.42,0 3710.51,0 216.5,0 434.34,0 657.27,0 603.17,0 1206.07,0 1790.51,0 -4.12,43.61 -6.96,87.97 -6.96,132.71 0,821.92 666.36,1487.69 1487.91,1487.69 821.92,0 1487.91,-665.77 1487.91,-1487.69 0,-44.73 -2.84,-89.09 -6.42,-132.71 1091.45,0 1867.88,0 2060.41,0 679.21,0 582.19,-1944.35 -131.37,-2669.79 -672.2,-684.5 -2959.76,-1118.47 -2984.7,-1159.09z"/>
 </g>
</svg>
