<?xml version="1.0" encoding="UTF-8"?>
<!DOCTYPE svg PUBLIC "-//W3C//DTD SVG 1.1//EN" "http://www.w3.org/Graphics/SVG/1.1/DTD/svg11.dtd">
<!-- Creator: CorelDRAW 2020 (64 Bit) -->
<svg xmlns="http://www.w3.org/2000/svg" xml:space="preserve" width="27.7305mm" height="18.5344mm" version="1.1" style="shape-rendering:geometricPrecision; text-rendering:geometricPrecision; image-rendering:optimizeQuality; fill-rule:evenodd; clip-rule:evenodd"
viewBox="0 0 3281.22 2193.09"
 xmlns:xlink="http://www.w3.org/1999/xlink"
 xmlns:xodm="http://www.corel.com/coreldraw/odm/2003">
 <defs>
  <style type="text/css">
   <![CDATA[
    .fil0 {fill:#FEFEFE;fill-rule:nonzero}
   ]]>
  </style>
 </defs>
 <g id="Camada_x0020_1">
  <metadata id="CorelCorpID_0Corel-Layer"/>
  <path class="fil0" d="M2250.55 1178.32l-0.88 -849.46 678.48 -0.84 0.92 849.47 -678.53 0.83zm-1805.28 478.79l-0.08 -68.45 1818.38 -2.09 0 68.45 -1818.29 2.09zm-0.37 -324.34l909.18 -1.25 0.08 68.45 -909.18 1.25 -0.08 -68.45zm2594.5 -1323.58l-2790.36 -9.18c-134.07,-0.46 -243.06,107.78 -243.48,241.77l-5.55 1698.76c-0.46,133.57 107.74,242.95 241.76,243.35l2790.44 9.18c133.96,0.41 242.98,-108.11 243.4,-242.09l5.6 -1698.38c0.41,-133.99 -107.78,-243.03 -241.81,-243.41z"/>
 </g>
</svg>
