<?xml version="1.0" encoding="UTF-8"?>
<!DOCTYPE svg PUBLIC "-//W3C//DTD SVG 1.1//EN" "http://www.w3.org/Graphics/SVG/1.1/DTD/svg11.dtd">
<!-- Creator: CorelDRAW 2020 (64 Bit) -->
<svg xmlns="http://www.w3.org/2000/svg" xml:space="preserve" width="25.7867mm" height="23.8438mm" version="1.1" style="shape-rendering:geometricPrecision; text-rendering:geometricPrecision; image-rendering:optimizeQuality; fill-rule:evenodd; clip-rule:evenodd"
viewBox="0 0 3463.52 3202.56"
 xmlns:xlink="http://www.w3.org/1999/xlink"
 xmlns:xodm="http://www.corel.com/coreldraw/odm/2003">
 <defs>
  <style type="text/css">
   <![CDATA[
    .fil0 {fill:#FEFEFE;fill-rule:nonzero}
   ]]>
  </style>
 </defs>
 <g id="Camada_x0020_1">
  <metadata id="CorelCorpID_0Corel-Layer"/>
  <path class="fil0" d="M3001.63 1093.96c48.9,-42.64 38.71,-93.82 -22.61,-114.19l-218.77 -73.44c-61.31,-20.38 -92.15,-86.23 -68.46,-146.42l84.48 -214.65c23.64,-60.17 -9.29,-100.92 -72.97,-90.5l-227.82 36.49c-63.87,10.42 -121.68,-33.65 -128.74,-97.61l-25.06 -229.81c-6.96,-63.97 -54.96,-84.82 -106.7,-45.96l-184.51 138.36c-51.7,38.86 -123.49,26.54 -159.55,-27.01l-128.73 -191.42c-36.06,-53.54 -88.32,-49.75 -115.99,8.53l-99.08 208.48c-27.72,58.28 -96.89,81.03 -153.8,50.23l-202.99 -109.47c-56.81,-30.8 -101.26,-3.3 -98.75,61.61l9.19 230.28c2.66,64.43 -48.18,117.03 -112.81,116.09l-230.71 -2.85c-64.58,-0.95 -91.02,44.54 -58.8,100.45l115.34 199.95c32.26,55.91 11.51,125.57 -46.11,154.94l-205.55 104.71c-57.57,29.39 -59.98,81.5 -5.44,116.09l194.98 123.68c54.63,34.59 68.7,105.66 31.36,158.73l-133.43 188.11c-37.3,53.07 -15.22,100.45 49.23,105.66l230 18.48c64.44,5.21 110.16,62.07 101.49,126.04l-30.56 228.86c-8.57,63.97 33.07,95.71 92.58,70.13l212.28 -90.03c59.42,-25.59 126.27,3.32 148.5,64.44l79.12 216.59c22.18,60.64 73.87,69.36 114.66,19.37l146.04 -178.62c40.94,-50.23 113.48,-55.44 161.39,-11.85l170.81 154.94c47.86,43.45 97.62,27.14 110.65,-36.01l46.19 -226.02c13.03,-63.49 74.73,-101.88 137.32,-85.76l223.31 57.81c62.64,16.1 99.12,-21.33 81.13,-83.4l-64.11 -221.75c-17.92,-62.08 18.95,-124.62 81.82,-139.31l224.73 -52.6c62.98,-14.68 77.85,-64.91 33.08,-111.35l-159.78 -166.79c-44.73,-46.43 -41.37,-119.41 7.59,-161.58l174.55 -150.67z"/>
  <path class="fil0" d="M2721.45 1951.6l64.16 221.75c17.9,61.6 -18.63,99.5 -81.17,82.93l-223.32 -57.81c-62.54,-16.12 -124.37,22.27 -137.31,85.76l-39.81 194.22 653.22 724.11 51.75 -441.33 454.55 -15.16 -746.42 -827.64c-0.2,10.91 1.13,21.8 4.35,33.18z"/>
  <path class="fil0" d="M1202.77 2295.12l-212.32 90.03c-59.51,25.59 -101.15,-6.17 -92.58,-70.13l30.7 -228.86c8.53,-63.97 -37.15,-120.83 -101.64,-126.04l-33.07 -2.36 -793.86 715.72 441.33 51.78 15.2 454.41 898.39 -810.16 -3.69 -9.95c-22.18,-60.64 -88.94,-90.03 -148.46,-64.44z"/>
 </g>
</svg>
