<?xml version="1.0" encoding="UTF-8"?>
<!DOCTYPE svg PUBLIC "-//W3C//DTD SVG 1.1//EN" "http://www.w3.org/Graphics/SVG/1.1/DTD/svg11.dtd">
<!-- Creator: CorelDRAW 2020 (64 Bit) -->
<svg xmlns="http://www.w3.org/2000/svg" xml:space="preserve" width="16.7425mm" height="21.6665mm" version="1.1" style="shape-rendering:geometricPrecision; text-rendering:geometricPrecision; image-rendering:optimizeQuality; fill-rule:evenodd; clip-rule:evenodd"
viewBox="0 0 811.13 1049.68"
 xmlns:xlink="http://www.w3.org/1999/xlink"
 xmlns:xodm="http://www.corel.com/coreldraw/odm/2003">
 <defs>
  <style type="text/css">
   <![CDATA[
    .fil0 {fill:#FEFEFE;fill-rule:nonzero}
   ]]>
  </style>
 </defs>
 <g id="Camada_x0020_1">
  <metadata id="CorelCorpID_0Corel-Layer"/>
  <path class="fil0" d="M339.96 373.03c-5.37,-2.18 -10.46,-4.46 -15.06,-6.82 -67.75,-34.92 -58.43,-105.69 15.02,-131.14l0.03 137.96zm-0.03 -306.41c-153.87,15.01 -299.06,84.67 -305.5,252.85 -7.28,189.13 150.26,244.5 305.56,282.26l0.03 209.9c-76.6,-33.48 -79.13,-122.92 -79.13,-122.92l-260.88 29.57c20.1,183.15 178.13,250.8 340.01,261.43l0.03 69.99 54.38 0 0 -1049.68 -54.5 0 0 66.62z"/>
  <path class="fil0" d="M464.98 818.29l-0.03 -182.33c62.33,21.5 83.81,42.15 93.85,77.27 12.03,42.06 -18.27,88.97 -93.81,105.06zm273.49 -287.21c-77.88,-68.93 -184.04,-99.53 -273.56,-122.34l0 -169.68c53.44,25.33 64.28,77.86 64.28,77.86l253.56 -41.85c-28.7,-116.92 -152.23,-194.58 -317.86,-209.16l-0.03 -65.9 -43.91 0 0 1049.68 44.06 0 0 -72.29c89.88,-8.82 169.3,-31.72 211.98,-57.36 135.34,-81.25 189.49,-275.71 61.47,-388.96z"/>
 </g>
</svg>
