<?xml version="1.0" encoding="UTF-8"?>
<!DOCTYPE svg PUBLIC "-//W3C//DTD SVG 1.1//EN" "http://www.w3.org/Graphics/SVG/1.1/DTD/svg11.dtd">
<!-- Creator: CorelDRAW 2020 (64 Bit) -->
<svg xmlns="http://www.w3.org/2000/svg" xml:space="preserve" width="21.3078mm" height="28.3845mm" version="1.1" style="shape-rendering:geometricPrecision; text-rendering:geometricPrecision; image-rendering:optimizeQuality; fill-rule:evenodd; clip-rule:evenodd"
viewBox="0 0 2635.74 3511.12"
 xmlns:xlink="http://www.w3.org/1999/xlink"
 xmlns:xodm="http://www.corel.com/coreldraw/odm/2003">
 <defs>
  <style type="text/css">
   <![CDATA[
    .fil0 {fill:#FEFEFE;fill-rule:nonzero}
   ]]>
  </style>
 </defs>
 <g id="Camada_x0020_1">
  <metadata id="CorelCorpID_0Corel-Layer"/>
  <path class="fil0" d="M1274.42 2701.64c-5.37,4.8 -10.85,9.59 -16.34,13.95 -5.69,5.26 -11.33,10.04 -17.13,14.41 -11.88,9.6 -24.12,18.77 -36.65,27.5l-258.95 531.94 -51.56 -306.34 76.56 -123.06c-9.31,2.18 -18.68,3.92 -28.13,5.68 -24.18,3.92 -48.77,6.96 -73.77,8.72 -13.69,0.88 -27.34,1.3 -41.18,1.3 -53.18,0 -104.82,-6.54 -154.45,-18.32l77.81 125.68 -48.56 312 -286.89 -563.79c-13.21,-10.46 -26.01,-21.38 -38.38,-33.18l-5.28 4.81c-278.52,240.88 -352.17,612.67 -371.49,808.17l1627.55 0c-53.66,-571.66 -291.63,-768.03 -353.13,-809.48z"/>
  <path class="fil0" d="M827.18 1596.72c-340.07,0 -616.83,276.66 -616.83,617.03 0,339.95 276.76,616.61 616.83,616.61 340.18,0 616.86,-276.66 616.86,-616.61 0,-340.37 -276.68,-617.03 -616.86,-617.03z"/>
  <path class="fil0" d="M2307.93 3030.67c-7.34,9.15 -153,103.84 -153,103.84l71.66 97.76 -226.83 178.03 0.38 0.89 -0.69 -0.45 -0.74 0.45 0.43 -0.89 -226.8 -178.03 71.58 -97.76c0,0 -145.7,-94.69 -153.03,-103.84 -12.99,-16.59 65.16,-91.22 65.16,-91.22l243.39 470.43 243.41 -470.43c0,0 78.07,74.63 65.07,91.22zm285.95 74.17c3.54,-2.61 5.54,-6.54 5.33,-10.91 -0.31,-4.37 -2.75,-8.29 -6.68,-10.02 -1.18,-0.89 -104.38,-54.55 -131.83,-126.56 36.22,35.79 79.07,50.18 135.45,61.09 4.4,0.42 8.81,-0.89 11.6,-4.37 2.8,-3.49 3.59,-8.3 1.88,-12.67 -53.64,-130.46 -80.29,-285.38 -106.13,-435.51 -15.75,-91.62 -31.15,-181.09 -52.05,-260.94 -6.82,-34.49 -17.5,-67.64 -31.56,-99.07 -15.05,-39.27 -32.68,-74.61 -54.02,-104.74 -23.27,-32.73 -85.83,-120.88 -228.45,-150.11 -45.9,-15.28 -94.83,-23.55 -145.7,-23.55 -102.16,0 -191.31,33.6 -264.52,90.32 -69.36,43.64 -121.11,109.96 -159.67,205.97 -25,53.67 -43.22,112.59 -53.86,173.67 -2.92,17.02 -4.71,33.18 -5.63,49.32 -3.43,20.06 -6.72,40.57 -9.81,61.96 -14.21,100.8 -3.97,232.16 15.59,356.97 81.58,130.46 162.97,334.7 191.55,645.4l930.36 0c-6.77,-85.54 -27.89,-231.72 -94.05,-377.02 31.02,-15.28 50.23,-27.94 52.19,-29.25z"/>
  <path class="fil0" d="M1773.38 392l-1473.93 0c-15.8,0 -28.59,-12.78 -28.59,-28.57 0,-15.76 12.79,-28.45 28.59,-28.45l1473.93 0c15.77,0 28.55,12.69 28.55,28.45 0,15.8 -12.78,28.57 -28.55,28.57zm0 197.2l-1473.93 0c-15.8,0 -28.59,-12.78 -28.59,-28.54 0,-15.75 12.79,-28.62 28.59,-28.62l1473.93 0c15.77,0 28.55,12.88 28.55,28.62 0,15.76 -12.78,28.54 -28.55,28.54zm-651.31 197.2l-822.62 0c-15.8,0 -28.59,-12.78 -28.59,-28.57 0,-15.76 12.79,-28.45 28.59,-28.45l822.62 0c15.75,0 28.6,12.69 28.6,28.45 0,15.8 -12.85,28.57 -28.6,28.57zm748.34 -786.4l-1647.7 0c-89.88,0 -162.71,72.92 -162.71,162.77l0 887.17c0,89.89 72.83,162.76 162.71,162.76l662.33 0 -21.83 278.85 242.24 -278.85 764.96 0c89.82,0 162.77,-72.87 162.77,-162.76l0 -887.17c0,-89.85 -72.96,-162.77 -162.77,-162.77z"/>
  <path class="fil0" d="M2481.51 786.28l-374.76 0 0 320.39c0,96.44 -78.64,175.42 -175.34,175.42l-494.45 0 0 213.39c0,56.3 45.57,101.68 101.84,101.68l502.62 0 151.64 174.55 -13.71 -174.55 302.15 0c56.21,0 101.82,-45.38 101.82,-101.68l0 -607.35c0,-56.3 -45.61,-101.85 -101.82,-101.85z"/>
 </g>
</svg>
